# Blender 3.5.1
# www.blender.org
o Cylinder
v 0.648636 0.000000 -0.167436
v 0.721095 0.000000 -0.150692
v 0.325619 0.000000 0.167436
v 0.253160 0.000000 0.184179
v 0.636173 -0.126543 -0.167436
v 0.707239 -0.140679 -0.150692
v 0.248296 -0.049389 0.184179
v 0.319362 -0.063525 0.167436
v 0.599262 -0.248223 -0.167436
v 0.666205 -0.275951 -0.150692
v 0.233890 -0.096880 0.184179
v 0.300832 -0.124609 0.167436
v 0.539322 -0.360363 -0.167436
v 0.599568 -0.400619 -0.150692
v 0.210495 -0.140648 0.184179
v 0.270742 -0.180904 0.167436
v 0.458655 -0.458655 -0.167436
v 0.509891 -0.509891 -0.150692
v 0.179011 -0.179011 0.184179
v 0.230247 -0.230247 0.167436
v 0.360363 -0.539322 -0.167436
v 0.400619 -0.599568 -0.150692
v 0.140648 -0.210495 0.184179
v 0.180904 -0.270742 0.167436
v 0.248223 -0.599262 -0.167436
v 0.275951 -0.666205 -0.150692
v 0.096880 -0.233890 0.184179
v 0.124609 -0.300832 0.167436
v 0.126543 -0.636173 -0.167436
v 0.140679 -0.707239 -0.150692
v 0.049389 -0.248296 0.184179
v 0.063525 -0.319362 0.167436
v 0.000000 -0.648636 -0.167436
v 0.000000 -0.721095 -0.150692
v 0.000000 -0.253160 0.184179
v 0.000000 -0.325619 0.167436
v -0.126543 -0.636173 -0.167436
v -0.140679 -0.707239 -0.150692
v -0.049389 -0.248296 0.184179
v -0.063525 -0.319362 0.167436
v -0.248223 -0.599262 -0.167436
v -0.275951 -0.666205 -0.150692
v -0.096880 -0.233890 0.184179
v -0.124609 -0.300832 0.167436
v -0.360363 -0.539322 -0.167436
v -0.400619 -0.599568 -0.150692
v -0.140648 -0.210495 0.184179
v -0.180904 -0.270742 0.167436
v -0.458655 -0.458655 -0.167436
v -0.509891 -0.509891 -0.150692
v -0.179011 -0.179011 0.184179
v -0.230247 -0.230247 0.167436
v -0.539322 -0.360363 -0.167436
v -0.599568 -0.400619 -0.150692
v -0.210495 -0.140648 0.184179
v -0.270742 -0.180904 0.167436
v -0.599262 -0.248223 -0.167436
v -0.666205 -0.275951 -0.150692
v -0.233890 -0.096880 0.184179
v -0.300832 -0.124609 0.167436
v -0.636173 -0.126543 -0.167436
v -0.707239 -0.140679 -0.150692
v -0.248296 -0.049389 0.184179
v -0.319362 -0.063525 0.167436
v -0.648636 0.000000 -0.167436
v -0.721095 0.000000 -0.150692
v -0.253160 0.000000 0.184179
v -0.325619 0.000000 0.167436
v -0.636173 0.126543 -0.167436
v -0.707239 0.140679 -0.150692
v -0.248296 0.049389 0.184179
v -0.319362 0.063525 0.167436
v -0.599262 0.248223 -0.167436
v -0.666205 0.275951 -0.150692
v -0.233890 0.096880 0.184179
v -0.300832 0.124609 0.167436
v -0.539322 0.360363 -0.167436
v -0.599568 0.400619 -0.150692
v -0.210495 0.140648 0.184179
v -0.270742 0.180904 0.167436
v -0.458655 0.458655 -0.167436
v -0.509891 0.509891 -0.150692
v -0.179011 0.179011 0.184179
v -0.230247 0.230247 0.167436
v -0.360363 0.539322 -0.167436
v -0.400619 0.599568 -0.150692
v -0.140648 0.210495 0.184179
v -0.180904 0.270742 0.167436
v -0.248223 0.599262 -0.167436
v -0.275951 0.666205 -0.150692
v -0.096880 0.233890 0.184179
v -0.124609 0.300832 0.167436
v -0.126543 0.636173 -0.167436
v -0.140679 0.707239 -0.150692
v -0.049389 0.248296 0.184179
v -0.063525 0.319362 0.167436
v 0.000000 0.648636 -0.167436
v 0.000000 0.721095 -0.150692
v 0.000000 0.253160 0.184179
v 0.000000 0.325619 0.167436
v 0.126543 0.636173 -0.167436
v 0.140679 0.707239 -0.150692
v 0.049389 0.248296 0.184179
v 0.063525 0.319362 0.167436
v 0.248223 0.599262 -0.167436
v 0.275951 0.666205 -0.150692
v 0.096880 0.233890 0.184179
v 0.124609 0.300832 0.167436
v 0.360363 0.539322 -0.167436
v 0.400619 0.599568 -0.150692
v 0.140648 0.210495 0.184179
v 0.180904 0.270742 0.167436
v 0.458655 0.458655 -0.167436
v 0.509891 0.509891 -0.150692
v 0.179011 0.179011 0.184179
v 0.230247 0.230247 0.167436
v 0.539322 0.360363 -0.167436
v 0.599568 0.400619 -0.150692
v 0.210495 0.140648 0.184179
v 0.270742 0.180904 0.167436
v 0.599262 0.248223 -0.167436
v 0.666205 0.275951 -0.150692
v 0.233890 0.096880 0.184179
v 0.300832 0.124609 0.167436
v 0.636173 0.126543 -0.167436
v 0.707239 0.140679 -0.150692
v 0.248296 0.049389 0.184179
v 0.319362 0.063525 0.167436
v 0.636173 -0.126543 0.167436
v 0.707239 -0.140679 0.150692
v 0.721095 0.000000 0.150692
v 0.648637 0.000000 0.167436
v 0.599262 -0.248222 0.167436
v 0.666205 -0.275951 0.150692
v 0.539322 -0.360363 0.167436
v 0.599568 -0.400619 0.150692
v 0.458655 -0.458655 0.167436
v 0.509891 -0.509891 0.150692
v 0.360363 -0.539322 0.167436
v 0.400619 -0.599568 0.150692
v 0.248222 -0.599262 0.167436
v 0.275951 -0.666205 0.150692
v 0.126543 -0.636173 0.167436
v 0.140679 -0.707239 0.150692
v 0.000000 -0.648637 0.167436
v 0.000000 -0.721095 0.150692
v -0.126543 -0.636173 0.167436
v -0.140679 -0.707239 0.150692
v -0.248222 -0.599262 0.167436
v -0.275951 -0.666205 0.150692
v -0.360363 -0.539322 0.167436
v -0.400619 -0.599568 0.150692
v -0.458655 -0.458655 0.167436
v -0.509891 -0.509891 0.150692
v -0.539322 -0.360363 0.167436
v -0.599568 -0.400619 0.150692
v -0.599262 -0.248222 0.167436
v -0.666205 -0.275951 0.150692
v -0.636173 -0.126543 0.167436
v -0.707239 -0.140679 0.150692
v -0.648637 0.000000 0.167436
v -0.721095 0.000000 0.150692
v -0.636173 0.126543 0.167436
v -0.707239 0.140679 0.150692
v -0.599262 0.248222 0.167436
v -0.666205 0.275951 0.150692
v -0.539322 0.360363 0.167436
v -0.599568 0.400619 0.150692
v -0.458655 0.458655 0.167436
v -0.509891 0.509891 0.150692
v -0.360363 0.539322 0.167436
v -0.400619 0.599568 0.150692
v -0.248222 0.599262 0.167436
v -0.275951 0.666205 0.150692
v -0.126543 0.636173 0.167436
v -0.140679 0.707239 0.150692
v 0.000000 0.648637 0.167436
v 0.000000 0.721095 0.150692
v 0.126543 0.636173 0.167436
v 0.140679 0.707239 0.150692
v 0.248222 0.599262 0.167436
v 0.275951 0.666205 0.150692
v 0.360363 0.539322 0.167436
v 0.400619 0.599568 0.150692
v 0.458655 0.458655 0.167436
v 0.509891 0.509891 0.150692
v 0.539322 0.360363 0.167436
v 0.599568 0.400619 0.150692
v 0.599262 0.248222 0.167436
v 0.666205 0.275951 0.150692
v 0.636173 0.126543 0.167436
v 0.707239 0.140679 0.150692
v 0.177230 -0.035253 0.602920
v 0.248296 -0.049389 0.586177
v 0.253160 0.000000 0.586177
v 0.180702 0.000000 0.602920
v 0.166947 -0.069152 0.602920
v 0.233890 -0.096880 0.586177
v 0.150248 -0.100393 0.602920
v 0.210495 -0.140648 0.586177
v 0.127776 -0.127776 0.602920
v 0.179011 -0.179011 0.586177
v 0.100393 -0.150248 0.602920
v 0.140648 -0.210495 0.586177
v 0.069152 -0.166947 0.602920
v 0.096880 -0.233890 0.586177
v 0.035253 -0.177230 0.602920
v 0.049389 -0.248296 0.586177
v 0.000000 -0.180702 0.602920
v 0.000000 -0.253160 0.586177
v -0.035253 -0.177230 0.602920
v -0.049389 -0.248296 0.586177
v -0.069152 -0.166947 0.602920
v -0.096880 -0.233890 0.586177
v -0.100393 -0.150248 0.602920
v -0.140648 -0.210495 0.586177
v -0.127776 -0.127776 0.602920
v -0.179011 -0.179011 0.586177
v -0.150248 -0.100393 0.602920
v -0.210495 -0.140648 0.586177
v -0.166947 -0.069152 0.602920
v -0.233890 -0.096880 0.586177
v -0.177230 -0.035253 0.602920
v -0.248296 -0.049389 0.586177
v -0.180702 0.000000 0.602920
v -0.253160 0.000000 0.586177
v -0.177230 0.035253 0.602920
v -0.248296 0.049389 0.586177
v -0.166947 0.069152 0.602920
v -0.233890 0.096880 0.586177
v -0.150248 0.100393 0.602920
v -0.210495 0.140648 0.586177
v -0.127776 0.127776 0.602920
v -0.179011 0.179011 0.586177
v -0.100393 0.150248 0.602920
v -0.140648 0.210495 0.586177
v -0.069152 0.166947 0.602920
v -0.096880 0.233890 0.586177
v -0.035253 0.177230 0.602920
v -0.049389 0.248296 0.586177
v 0.000000 0.180702 0.602920
v 0.000000 0.253160 0.586177
v 0.035253 0.177230 0.602920
v 0.049389 0.248296 0.586177
v 0.069152 0.166947 0.602920
v 0.096880 0.233890 0.586177
v 0.100393 0.150248 0.602920
v 0.140648 0.210495 0.586177
v 0.127776 0.127776 0.602920
v 0.179011 0.179011 0.586177
v 0.150248 0.100393 0.602920
v 0.210495 0.140648 0.586177
v 0.166947 0.069152 0.602920
v 0.233890 0.096880 0.586177
v 0.177230 0.035253 0.602920
v 0.248296 0.049389 0.586177
vn 0.9952 0.0980 -0.0000
vn 0.9569 -0.2903 -0.0000
vn 0.8819 -0.4714 -0.0000
vn 0.7730 -0.6344 -0.0000
vn 0.6344 -0.7730 -0.0000
vn 0.4714 -0.8819 -0.0000
vn 0.2903 -0.9569 -0.0000
vn -0.0000 -0.0000 1.0000
vn -0.0980 -0.9952 -0.0000
vn -0.2903 -0.9569 -0.0000
vn -0.4714 -0.8819 -0.0000
vn -0.6344 -0.7730 -0.0000
vn -0.7730 -0.6344 -0.0000
vn -0.8819 -0.4714 -0.0000
vn -0.9569 -0.2903 -0.0000
vn -0.9952 -0.0980 -0.0000
vn -0.9952 0.0980 -0.0000
vn -0.9569 0.2903 -0.0000
vn -0.8819 0.4714 -0.0000
vn -0.7730 0.6344 -0.0000
vn -0.6344 0.7730 -0.0000
vn -0.4714 0.8819 -0.0000
vn -0.2903 0.9569 -0.0000
vn -0.0980 0.9952 -0.0000
vn 0.0980 0.9952 -0.0000
vn 0.2903 0.9569 -0.0000
vn 0.4714 0.8819 -0.0000
vn 0.6344 0.7730 -0.0000
vn 0.7730 0.6344 -0.0000
vn 0.8819 0.4714 -0.0000
vn 0.9569 0.2903 -0.0000
vn 0.9952 -0.0980 -0.0000
vn 0.0980 -0.9952 -0.0000
vn 0.2251 -0.0222 -0.9741
vn 0.2251 -0.0222 0.9741
vn 0.2164 -0.0657 -0.9741
vn 0.2164 -0.0657 0.9741
vn 0.1995 -0.1066 -0.9741
vn 0.1995 -0.1066 0.9741
vn 0.1748 -0.1435 -0.9741
vn 0.1748 -0.1435 0.9741
vn 0.1435 -0.1748 -0.9741
vn 0.1435 -0.1748 0.9741
vn 0.1066 -0.1995 -0.9741
vn 0.1066 -0.1995 0.9741
vn 0.0657 -0.2164 -0.9741
vn 0.0657 -0.2164 0.9741
vn 0.0222 -0.2251 -0.9741
vn 0.0222 -0.2251 0.9741
vn -0.0222 -0.2251 -0.9741
vn -0.0222 -0.2251 0.9741
vn -0.0657 -0.2164 -0.9741
vn -0.0657 -0.2164 0.9741
vn -0.1066 -0.1995 -0.9741
vn -0.1066 -0.1995 0.9741
vn -0.1435 -0.1748 -0.9741
vn -0.1435 -0.1748 0.9741
vn -0.1748 -0.1435 -0.9741
vn -0.1748 -0.1435 0.9741
vn -0.1995 -0.1066 -0.9741
vn -0.1995 -0.1066 0.9741
vn -0.2164 -0.0657 -0.9741
vn -0.2164 -0.0657 0.9741
vn -0.2251 -0.0222 -0.9741
vn -0.2251 -0.0222 0.9741
vn -0.2251 0.0222 -0.9741
vn -0.2251 0.0222 0.9741
vn -0.2164 0.0657 -0.9741
vn -0.2164 0.0657 0.9741
vn -0.1995 0.1066 -0.9741
vn -0.1995 0.1066 0.9741
vn -0.1748 0.1435 -0.9741
vn -0.1748 0.1435 0.9741
vn -0.1435 0.1748 -0.9741
vn -0.1435 0.1748 0.9741
vn -0.1066 0.1995 -0.9741
vn -0.1066 0.1995 0.9741
vn -0.0657 0.2164 -0.9741
vn -0.0657 0.2164 0.9741
vn -0.0222 0.2251 -0.9741
vn -0.0222 0.2251 0.9741
vn 0.0222 0.2251 -0.9741
vn 0.0222 0.2251 0.9741
vn 0.0657 0.2164 -0.9741
vn 0.0657 0.2164 0.9741
vn 0.1066 0.1995 -0.9741
vn 0.1066 0.1995 0.9741
vn 0.1435 0.1748 -0.9741
vn 0.1435 0.1748 0.9741
vn 0.1748 0.1435 -0.9741
vn 0.1748 0.1435 0.9741
vn 0.1995 0.1066 -0.9741
vn 0.1995 0.1066 0.9741
vn 0.2164 0.0657 -0.9741
vn 0.2164 0.0657 0.9741
vn 0.2251 0.0222 -0.9741
vn 0.2251 0.0222 0.9741
vn -0.0000 -0.0000 -1.0000
s 0
f 192//1 2//1 126//1
f 7//2 198//2 11//2
f 11//3 200//3 15//3
f 15//4 202//4 19//4
f 19//5 204//5 23//5
f 23//6 206//6 27//6
f 27//7 208//7 31//7
f 36//8 143//8 32//8
f 35//9 212//9 39//9
f 39//10 214//10 43//10
f 43//11 216//11 47//11
f 47//12 218//12 51//12
f 51//13 220//13 55//13
f 55//14 222//14 59//14
f 59//15 224//15 63//15
f 63//16 226//16 67//16
f 67//17 228//17 71//17
f 71//18 230//18 75//18
f 75//19 232//19 79//19
f 79//20 234//20 83//20
f 83//21 236//21 87//21
f 87//22 238//22 91//22
f 91//23 240//23 95//23
f 95//24 242//24 99//24
f 99//25 244//25 103//25
f 103//26 246//26 107//26
f 107//27 248//27 111//27
f 111//28 250//28 115//28
f 115//29 252//29 119//29
f 119//30 254//30 123//30
f 146//9 38//9 34//9
f 123//31 256//31 127//31
f 4//32 194//32 7//32
f 131//32 6//32 2//32
f 127//1 195//1 4//1
f 134//3 14//3 10//3
f 136//4 18//4 14//4
f 138//5 22//5 18//5
f 140//6 26//6 22//6
f 142//7 30//7 26//7
f 144//33 34//33 30//33
f 31//33 210//33 35//33
f 148//10 42//10 38//10
f 150//11 46//11 42//11
f 152//12 50//12 46//12
f 154//13 54//13 50//13
f 156//14 58//14 54//14
f 158//15 62//15 58//15
f 160//16 66//16 62//16
f 162//17 70//17 66//17
f 164//18 74//18 70//18
f 166//19 78//19 74//19
f 168//20 82//20 78//20
f 170//21 86//21 82//21
f 172//22 90//22 86//22
f 174//23 94//23 90//23
f 176//24 98//24 94//24
f 178//25 102//25 98//25
f 180//26 106//26 102//26
f 182//27 110//27 106//27
f 184//28 114//28 110//28
f 186//29 118//29 114//29
f 188//30 122//30 118//30
f 190//31 126//31 122//31
f 229//8 213//8 197//8
f 130//2 10//2 6//2
f 88//8 173//8 171//8
f 36//8 147//8 145//8
f 96//8 173//8 92//8
f 44//8 147//8 40//8
f 100//8 175//8 96//8
f 48//8 149//8 44//8
f 100//8 179//8 177//8
f 48//8 153//8 151//8
f 108//8 179//8 104//8
f 56//8 153//8 52//8
f 112//8 181//8 108//8
f 56//8 157//8 155//8
f 3//8 129//8 132//8
f 112//8 185//8 183//8
f 64//8 157//8 60//8
f 12//8 129//8 8//8
f 120//8 185//8 116//8
f 68//8 159//8 64//8
f 16//8 133//8 12//8
f 120//8 189//8 187//8
f 68//8 163//8 161//8
f 16//8 137//8 135//8
f 128//8 189//8 124//8
f 76//8 163//8 72//8
f 24//8 137//8 20//8
f 3//8 191//8 128//8
f 80//8 165//8 76//8
f 24//8 141//8 139//8
f 80//8 169//8 167//8
f 32//8 141//8 28//8
f 88//8 169//8 84//8
f 2//34 5//34 1//34
f 130//35 132//35 129//35
f 10//36 5//36 6//36
f 130//37 133//37 134//37
f 14//38 9//38 10//38
f 136//39 133//39 135//39
f 14//40 17//40 13//40
f 136//41 137//41 138//41
f 22//42 17//42 18//42
f 138//43 139//43 140//43
f 22//44 25//44 21//44
f 140//45 141//45 142//45
f 26//46 29//46 25//46
f 142//47 143//47 144//47
f 34//48 29//48 30//48
f 144//49 145//49 146//49
f 34//50 37//50 33//50
f 148//51 145//51 147//51
f 42//52 37//52 38//52
f 148//53 149//53 150//53
f 46//54 41//54 42//54
f 152//55 149//55 151//55
f 46//56 49//56 45//56
f 152//57 153//57 154//57
f 54//58 49//58 50//58
f 154//59 155//59 156//59
f 54//60 57//60 53//60
f 156//61 157//61 158//61
f 58//62 61//62 57//62
f 158//63 159//63 160//63
f 66//64 61//64 62//64
f 160//65 161//65 162//65
f 66//66 69//66 65//66
f 164//67 161//67 163//67
f 74//68 69//68 70//68
f 164//69 165//69 166//69
f 78//70 73//70 74//70
f 168//71 165//71 167//71
f 78//72 81//72 77//72
f 168//73 169//73 170//73
f 86//74 81//74 82//74
f 170//75 171//75 172//75
f 86//76 89//76 85//76
f 172//77 173//77 174//77
f 90//78 93//78 89//78
f 174//79 175//79 176//79
f 98//80 93//80 94//80
f 176//81 177//81 178//81
f 98//82 101//82 97//82
f 180//83 177//83 179//83
f 106//84 101//84 102//84
f 180//85 181//85 182//85
f 110//86 105//86 106//86
f 184//87 181//87 183//87
f 110//88 113//88 109//88
f 184//89 185//89 186//89
f 118//90 113//90 114//90
f 186//91 187//91 188//91
f 118//92 121//92 117//92
f 188//93 189//93 190//93
f 122//94 125//94 121//94
f 190//95 191//95 192//95
f 2//96 125//96 126//96
f 192//97 132//97 131//97
f 8//35 4//35 7//35
f 12//37 7//37 11//37
f 12//39 15//39 16//39
f 20//41 15//41 19//41
f 20//43 23//43 24//43
f 28//45 23//45 27//45
f 28//47 31//47 32//47
f 32//49 35//49 36//49
f 40//51 35//51 39//51
f 44//53 39//53 43//53
f 44//55 47//55 48//55
f 52//57 47//57 51//57
f 52//59 55//59 56//59
f 60//61 55//61 59//61
f 60//63 63//63 64//63
f 64//65 67//65 68//65
f 72//67 67//67 71//67
f 76//69 71//69 75//69
f 76//71 79//71 80//71
f 84//73 79//73 83//73
f 84//75 87//75 88//75
f 92//77 87//77 91//77
f 92//79 95//79 96//79
f 96//81 99//81 100//81
f 104//83 99//83 103//83
f 108//85 103//85 107//85
f 108//87 111//87 112//87
f 116//89 111//89 115//89
f 116//91 119//91 120//91
f 124//93 119//93 123//93
f 124//95 127//95 128//95
f 128//97 4//97 3//97
f 194//35 196//35 193//35
f 198//37 193//37 197//37
f 198//39 199//39 200//39
f 202//41 199//41 201//41
f 202//43 203//43 204//43
f 206//45 203//45 205//45
f 206//47 207//47 208//47
f 208//49 209//49 210//49
f 212//51 209//51 211//51
f 214//53 211//53 213//53
f 214//55 215//55 216//55
f 218//57 215//57 217//57
f 218//59 219//59 220//59
f 222//61 219//61 221//61
f 222//63 223//63 224//63
f 224//65 225//65 226//65
f 228//67 225//67 227//67
f 230//69 227//69 229//69
f 230//71 231//71 232//71
f 234//73 231//73 233//73
f 234//75 235//75 236//75
f 238//77 235//77 237//77
f 238//79 239//79 240//79
f 240//81 241//81 242//81
f 244//83 241//83 243//83
f 246//85 243//85 245//85
f 246//87 247//87 248//87
f 250//89 247//89 249//89
f 250//91 251//91 252//91
f 254//93 251//93 253//93
f 254//95 255//95 256//95
f 256//97 196//97 195//97
f 61//98 93//98 125//98
f 192//1 131//1 2//1
f 7//2 194//2 198//2
f 11//3 198//3 200//3
f 15//4 200//4 202//4
f 19//5 202//5 204//5
f 23//6 204//6 206//6
f 27//7 206//7 208//7
f 36//8 145//8 143//8
f 35//9 210//9 212//9
f 39//10 212//10 214//10
f 43//11 214//11 216//11
f 47//12 216//12 218//12
f 51//13 218//13 220//13
f 55//14 220//14 222//14
f 59//15 222//15 224//15
f 63//16 224//16 226//16
f 67//17 226//17 228//17
f 71//18 228//18 230//18
f 75//19 230//19 232//19
f 79//20 232//20 234//20
f 83//21 234//21 236//21
f 87//22 236//22 238//22
f 91//23 238//23 240//23
f 95//24 240//24 242//24
f 99//25 242//25 244//25
f 103//26 244//26 246//26
f 107//27 246//27 248//27
f 111//28 248//28 250//28
f 115//29 250//29 252//29
f 119//30 252//30 254//30
f 146//9 148//9 38//9
f 123//31 254//31 256//31
f 4//32 195//32 194//32
f 131//32 130//32 6//32
f 127//1 256//1 195//1
f 134//3 136//3 14//3
f 136//4 138//4 18//4
f 138//5 140//5 22//5
f 140//6 142//6 26//6
f 142//7 144//7 30//7
f 144//33 146//33 34//33
f 31//33 208//33 210//33
f 148//10 150//10 42//10
f 150//11 152//11 46//11
f 152//12 154//12 50//12
f 154//13 156//13 54//13
f 156//14 158//14 58//14
f 158//15 160//15 62//15
f 160//16 162//16 66//16
f 162//17 164//17 70//17
f 164//18 166//18 74//18
f 166//19 168//19 78//19
f 168//20 170//20 82//20
f 170//21 172//21 86//21
f 172//22 174//22 90//22
f 174//23 176//23 94//23
f 176//24 178//24 98//24
f 178//25 180//25 102//25
f 180//26 182//26 106//26
f 182//27 184//27 110//27
f 184//28 186//28 114//28
f 186//29 188//29 118//29
f 188//30 190//30 122//30
f 190//31 192//31 126//31
f 197//8 193//8 196//8
f 196//8 255//8 253//8
f 253//8 251//8 249//8
f 249//8 247//8 245//8
f 245//8 243//8 241//8
f 241//8 239//8 237//8
f 237//8 235//8 233//8
f 233//8 231//8 229//8
f 229//8 227//8 225//8
f 225//8 223//8 221//8
f 221//8 219//8 217//8
f 217//8 215//8 213//8
f 213//8 211//8 209//8
f 209//8 207//8 205//8
f 205//8 203//8 201//8
f 201//8 199//8 197//8
f 197//8 196//8 253//8
f 253//8 249//8 245//8
f 245//8 241//8 237//8
f 237//8 233//8 229//8
f 229//8 225//8 221//8
f 221//8 217//8 213//8
f 213//8 209//8 205//8
f 205//8 201//8 197//8
f 197//8 253//8 245//8
f 245//8 237//8 229//8
f 229//8 221//8 213//8
f 213//8 205//8 197//8
f 197//8 245//8 229//8
f 130//2 134//2 10//2
f 88//8 92//8 173//8
f 36//8 40//8 147//8
f 96//8 175//8 173//8
f 44//8 149//8 147//8
f 100//8 177//8 175//8
f 48//8 151//8 149//8
f 100//8 104//8 179//8
f 48//8 52//8 153//8
f 108//8 181//8 179//8
f 56//8 155//8 153//8
f 112//8 183//8 181//8
f 56//8 60//8 157//8
f 3//8 8//8 129//8
f 112//8 116//8 185//8
f 64//8 159//8 157//8
f 12//8 133//8 129//8
f 120//8 187//8 185//8
f 68//8 161//8 159//8
f 16//8 135//8 133//8
f 120//8 124//8 189//8
f 68//8 72//8 163//8
f 16//8 20//8 137//8
f 128//8 191//8 189//8
f 76//8 165//8 163//8
f 24//8 139//8 137//8
f 3//8 132//8 191//8
f 80//8 167//8 165//8
f 24//8 28//8 141//8
f 80//8 84//8 169//8
f 32//8 143//8 141//8
f 88//8 171//8 169//8
f 2//34 6//34 5//34
f 130//35 131//35 132//35
f 10//36 9//36 5//36
f 130//37 129//37 133//37
f 14//38 13//38 9//38
f 136//39 134//39 133//39
f 14//40 18//40 17//40
f 136//41 135//41 137//41
f 22//42 21//42 17//42
f 138//43 137//43 139//43
f 22//44 26//44 25//44
f 140//45 139//45 141//45
f 26//46 30//46 29//46
f 142//47 141//47 143//47
f 34//48 33//48 29//48
f 144//49 143//49 145//49
f 34//50 38//50 37//50
f 148//51 146//51 145//51
f 42//52 41//52 37//52
f 148//53 147//53 149//53
f 46//54 45//54 41//54
f 152//55 150//55 149//55
f 46//56 50//56 49//56
f 152//57 151//57 153//57
f 54//58 53//58 49//58
f 154//59 153//59 155//59
f 54//60 58//60 57//60
f 156//61 155//61 157//61
f 58//62 62//62 61//62
f 158//63 157//63 159//63
f 66//64 65//64 61//64
f 160//65 159//65 161//65
f 66//66 70//66 69//66
f 164//67 162//67 161//67
f 74//68 73//68 69//68
f 164//69 163//69 165//69
f 78//70 77//70 73//70
f 168//71 166//71 165//71
f 78//72 82//72 81//72
f 168//73 167//73 169//73
f 86//74 85//74 81//74
f 170//75 169//75 171//75
f 86//76 90//76 89//76
f 172//77 171//77 173//77
f 90//78 94//78 93//78
f 174//79 173//79 175//79
f 98//80 97//80 93//80
f 176//81 175//81 177//81
f 98//82 102//82 101//82
f 180//83 178//83 177//83
f 106//84 105//84 101//84
f 180//85 179//85 181//85
f 110//86 109//86 105//86
f 184//87 182//87 181//87
f 110//88 114//88 113//88
f 184//89 183//89 185//89
f 118//90 117//90 113//90
f 186//91 185//91 187//91
f 118//92 122//92 121//92
f 188//93 187//93 189//93
f 122//94 126//94 125//94
f 190//95 189//95 191//95
f 2//96 1//96 125//96
f 192//97 191//97 132//97
f 8//35 3//35 4//35
f 12//37 8//37 7//37
f 12//39 11//39 15//39
f 20//41 16//41 15//41
f 20//43 19//43 23//43
f 28//45 24//45 23//45
f 28//47 27//47 31//47
f 32//49 31//49 35//49
f 40//51 36//51 35//51
f 44//53 40//53 39//53
f 44//55 43//55 47//55
f 52//57 48//57 47//57
f 52//59 51//59 55//59
f 60//61 56//61 55//61
f 60//63 59//63 63//63
f 64//65 63//65 67//65
f 72//67 68//67 67//67
f 76//69 72//69 71//69
f 76//71 75//71 79//71
f 84//73 80//73 79//73
f 84//75 83//75 87//75
f 92//77 88//77 87//77
f 92//79 91//79 95//79
f 96//81 95//81 99//81
f 104//83 100//83 99//83
f 108//85 104//85 103//85
f 108//87 107//87 111//87
f 116//89 112//89 111//89
f 116//91 115//91 119//91
f 124//93 120//93 119//93
f 124//95 123//95 127//95
f 128//97 127//97 4//97
f 194//35 195//35 196//35
f 198//37 194//37 193//37
f 198//39 197//39 199//39
f 202//41 200//41 199//41
f 202//43 201//43 203//43
f 206//45 204//45 203//45
f 206//47 205//47 207//47
f 208//49 207//49 209//49
f 212//51 210//51 209//51
f 214//53 212//53 211//53
f 214//55 213//55 215//55
f 218//57 216//57 215//57
f 218//59 217//59 219//59
f 222//61 220//61 219//61
f 222//63 221//63 223//63
f 224//65 223//65 225//65
f 228//67 226//67 225//67
f 230//69 228//69 227//69
f 230//71 229//71 231//71
f 234//73 232//73 231//73
f 234//75 233//75 235//75
f 238//77 236//77 235//77
f 238//79 237//79 239//79
f 240//81 239//81 241//81
f 244//83 242//83 241//83
f 246//85 244//85 243//85
f 246//87 245//87 247//87
f 250//89 248//89 247//89
f 250//91 249//91 251//91
f 254//93 252//93 251//93
f 254//95 253//95 255//95
f 256//97 255//97 196//97
f 125//98 1//98 5//98
f 5//98 9//98 13//98
f 13//98 17//98 21//98
f 21//98 25//98 29//98
f 29//98 33//98 37//98
f 37//98 41//98 45//98
f 45//98 49//98 53//98
f 53//98 57//98 61//98
f 61//98 65//98 69//98
f 69//98 73//98 77//98
f 77//98 81//98 85//98
f 85//98 89//98 93//98
f 93//98 97//98 101//98
f 101//98 105//98 109//98
f 109//98 113//98 117//98
f 117//98 121//98 125//98
f 125//98 5//98 13//98
f 13//98 21//98 29//98
f 29//98 37//98 45//98
f 45//98 53//98 61//98
f 61//98 69//98 77//98
f 77//98 85//98 93//98
f 93//98 101//98 109//98
f 109//98 117//98 125//98
f 125//98 13//98 29//98
f 29//98 45//98 61//98
f 61//98 77//98 93//98
f 93//98 109//98 125//98
f 125//98 29//98 61//98
